# xmcd CD database file
# Copyright (C) 1993-1998 Ti Kan
# 
# Track frame offsets:
#     180
#     18482
#     45696
#     63019
#     80573
#     95123
#     119574
#     139674
#     163749
#     183103
#     197578
#     217246
#     230356
# 
# Disc length: 3298 seconds
# 
# Revision: 1
# Processed by: cddbd v1.4b41PL1 Copyright (c) Steve Scherf et al.
# Submitted via: DiscPlay 4.0.0
# 
DISCID=b60ce00d
DTITLE=Roland Klausmann - Givin' You All
DYEAR=1900
DGENRE=
TTITLE0=LEONY
TTITLE1=Can't Be No More
TTITLE2=These Days
TTITLE3=GIVIN' YOU ALL
TTITLE4=LITTLE WING
TTITLE5=Love Power
TTITLE6=Ain't No Way Back
TTITLE7=Broken The Chains
TTITLE8=Nothing To Me
TTITLE9=This Heart Of Mine
TTITLE10=TEARS IN HEAVEN
TTITLE11=Song For J.
TTITLE12=You Can Be
EXTD=
EXTT0=
EXTT1=
EXTT2=
EXTT3=
EXTT4=von Jimi Hendrix\n
EXTT5=
EXTT6=
EXTT7=
EXTT8=
EXTT9=
EXTT10=von Eric Clapton\n
EXTT11=
EXTT12=
PLAYORDER=
